<svg xmlns="http://www.w3.org/2000/svg" width="32" height="32" viewBox="0 0 128 128"><g fill="#1791cf"><path fill-rule="evenodd" d="M61.113 4.886C55.82 17.79 52.63 26.23 46.738 38.75c3.614 3.804 8.047 8.242 15.246 13.25c-7.742-3.168-13.02-6.348-16.968-9.649c-7.54 15.645-19.352 37.934-43.325 80.77c18.844-10.817 33.45-17.485 47.059-20.031a34 34 0 0 1-.895-8.024l.024-.602c.297-12.003 6.578-21.238 14.016-20.609c7.437.625 13.222 10.871 12.921 22.875c-.054 2.262-.312 4.434-.761 6.45c13.465 2.62 27.914 9.273 46.5 19.94c-3.664-6.706-6.934-12.757-10.059-18.519c-4.922-3.793-10.055-8.726-20.523-14.074c7.195 1.863 12.347 4.008 16.363 6.406C74.578 38.121 72.004 30.308 61.113 4.886m0 0"/><path d="M121.14 112.57v-3.242h-1.214v-.434h2.93v.434h-1.223v3.242zm2.223 0v-3.676h.735l.875 2.602c.082.242.14.426.175.543q.065-.2.2-.586l.882-2.559h.66v3.676h-.472v-3.078l-1.074 3.078h-.442l-1.066-3.129v3.129z"/></g></svg>