<svg xmlns="http://www.w3.org/2000/svg">
  <defs>
    <!-- coolapk -->
    <symbol viewBox="0 0 1024 1024" id="coolapk-line">
      <path
        fill="currentColor"
        d="M45.83676799 408.43693868c36.31179852-81.29700386 114.69609127-141.62248651 201.94797037-158.1925772 67.70435201-11.65084445 137.09160297 6.14905719 196.51090963 38.77142163 50.42226608 25.69658429 94.88965571 61.42584059 135.60288476 100.45616948-19.61225482 22.33078518-47.44482725 35.01725984-69.77561365 54.3058809-55.98877984-47.18592-117.28516741-94.30711349-191.72111762-105.69905068-95.79583169-15.98754725-192.43311408 59.74294164-206.93194312 154.30896237-10.55048651 55.72987259 12.29811317 114.89027201 54.82369662 151.59043201 48.1568237 42.46085571 117.99716386 54.11170016 179.16409597 37.92997096 69.90506667-16.89372445 123.75785836-69.25779794 166.08926106-124.72876207 65.63309037-87.51078756 120.39205925-182.5298963 179.42300444-274.44211439 16.89372445-23.23696238 57.54222577-20.90679349 71.26433186 4.66033778 77.21920831 132.30181095 153.0144237 265.44507259 230.10417777 397.81161128 9.19122132 18.31771614 5.37233423 43.43175941-11.65084444 55.98877984-15.85809423 12.88065539-40.45432059 12.42756741-55.98878105-0.84144948-91.58858311-65.69781689-183.11243852-131.52508799-274.50683969-197.48181333 22.91332741-18.25298963 46.60337778-35.59980206 70.35815465-52.75243497 28.80347614 15.66391349 53.14079645 40.26013984 84.46862223 50.5517203-24.72568059-48.02736947-52.94661571-94.30711349-80.52028089-140.71631052-51.78153127 71.78214756-93.53039053 150.74898132-149.45444266 219.74787202-58.18949571 76.11885037-139.74540683 141.03994429-237.02995793 155.02095761-47.18592 4.14252206-96.2489209 5.11342577-141.23412503-12.10393244-64.92109392-23.23696238-121.75132445-71.26433185-151.20207052-134.17889184-34.24053689-68.09271349-32.49291022-151.71988502 0.25890724-220.00677926z"
        p-id="1876"
      ></path>
    </symbol>

    <!-- telegram -->
    <symbol viewBox="0 0 24 24" id="mingcute-telegram-line">
      <g fill="none" fill-rule="evenodd">
        <path
          d="M24 0v24H0V0zM12.593 23.258l-.011.002l-.071.035l-.02.004l-.014-.004l-.071-.035c-.01-.004-.019-.001-.024.005l-.004.01l-.017.428l.005.02l.01.013l.104.074l.015.004l.012-.004l.104-.074l.012-.016l.004-.017l-.017-.427c-.002-.01-.009-.017-.017-.018m.265-.113l-.013.002l-.185.093l-.01.01l-.003.011l.018.43l.005.012l.008.007l.201.093c.012.004.023 0 .029-.008l.004-.014l-.034-.614c-.003-.012-.01-.02-.02-.022m-.715.002a.023.023 0 0 0-.027.006l-.006.014l-.034.614c0 .012.007.02.017.024l.015-.002l.201-.093l.01-.008l.004-.011l.017-.43l-.003-.012l-.01-.01z"
        ></path>
        <path
          fill="currentColor"
          d="M21.84 6.056a1.5 1.5 0 0 0-2.063-1.626l-17.1 7.2c-1.192.502-1.253 2.226 0 2.746a56.46 56.46 0 0 0 3.774 1.418c1.168.386 2.442.743 3.463.844c.279.334.63.656.988.95c.547.45 1.205.913 1.885 1.357c1.362.89 2.873 1.741 3.891 2.295c1.217.66 2.674-.1 2.892-1.427zM4.594 12.993l15.124-6.368l-2.118 12.84c-.999-.543-2.438-1.356-3.72-2.194a19.982 19.982 0 0 1-1.709-1.229a7.962 7.962 0 0 1-.426-.374l3.961-3.96a1 1 0 0 0-1.414-1.415L9.955 14.63c-.734-.094-1.756-.366-2.878-.736a48.89 48.89 0 0 1-2.482-.902Z"
        ></path>
      </g>
    </symbol>

    <!-- github -->
    <symbol viewBox="0 0 24 24" id="mingcute-github-line">
      <g fill="none">
        <path
          d="M24 0v24H0V0zM12.593 23.258l-.011.002l-.071.035l-.02.004l-.014-.004l-.071-.035c-.01-.004-.019-.001-.024.005l-.004.01l-.017.428l.005.02l.01.013l.104.074l.015.004l.012-.004l.104-.074l.012-.016l.004-.017l-.017-.427c-.002-.01-.009-.017-.017-.018m.265-.113l-.013.002l-.185.093l-.01.01l-.003.011l.018.43l.005.012l.008.007l.201.093c.012.004.023 0 .029-.008l.004-.014l-.034-.614c-.003-.012-.01-.02-.02-.022m-.715.002a.023.023 0 0 0-.027.006l-.006.014l-.034.614c0 .012.007.02.017.024l.015-.002l.201-.093l.01-.008l.004-.011l.017-.43l-.003-.012l-.01-.01z"
        ></path>
        <path
          fill="currentColor"
          d="M6.315 6.176c-.25-.638-.24-1.367-.129-2.034a6.77 6.77 0 0 1 2.12 1.07c.28.214.647.283.989.18A9.343 9.343 0 0 1 12 5c.961 0 1.874.14 2.703.391c.342.104.709.034.988-.18a6.77 6.77 0 0 1 2.119-1.07c.111.667.12 1.396-.128 2.033c-.15.384-.075.826.208 1.14C18.614 8.117 19 9.04 19 10c0 2.114-1.97 4.187-5.134 4.818c-.792.158-1.101 1.155-.495 1.726c.389.366.629.882.629 1.456v3a1 1 0 0 0 2 0v-3c0-.57-.12-1.112-.334-1.603C18.683 15.35 21 12.993 21 10c0-1.347-.484-2.585-1.287-3.622c.21-.82.191-1.646.111-2.28c-.071-.568-.17-1.312-.57-1.756c-.595-.659-1.58-.271-2.28-.032a9.081 9.081 0 0 0-2.125 1.045A11.432 11.432 0 0 0 12 3c-.994 0-1.953.125-2.851.356a9.08 9.08 0 0 0-2.125-1.045c-.7-.24-1.686-.628-2.281.031c-.408.452-.493 1.137-.566 1.719l-.005.038c-.08.635-.098 1.462.112 2.283C3.484 7.418 3 8.654 3 10c0 2.992 2.317 5.35 5.334 6.397A3.986 3.986 0 0 0 8 17.98l-.168.034c-.717.099-1.176.01-1.488-.122c-.76-.322-1.152-1.133-1.63-1.753c-.298-.385-.732-.866-1.398-1.088a1 1 0 0 0-.632 1.898c.558.186.944 1.142 1.298 1.566c.373.448.869.916 1.58 1.218c.682.29 1.483.393 2.438.276V21a1 1 0 0 0 2 0v-3c0-.574.24-1.09.629-1.456c.607-.572.297-1.568-.495-1.726C6.969 14.187 5 12.114 5 10c0-.958.385-1.881 1.108-2.684c.283-.314.357-.756.207-1.14"
        ></path>
      </g>
    </symbol>

    <!-- rss -->
    <symbol viewBox="0 0 24 24" id="mingcute-rss-2-line">
      <g fill="none">
        <path
          d="M24 0v24H0V0zM12.594 23.258l-.012.002l-.071.035l-.02.004l-.014-.004l-.071-.036c-.01-.003-.019 0-.024.006l-.004.01l-.017.428l.005.02l.01.013l.104.074l.015.004l.012-.004l.104-.074l.012-.016l.004-.017l-.017-.427c-.002-.01-.009-.017-.016-.018m.264-.113l-.014.002l-.184.093l-.01.01l-.003.011l.018.43l.005.012l.008.008l.201.092c.012.004.023 0 .029-.008l.004-.014l-.034-.614c-.003-.012-.01-.02-.02-.022m-.715.002a.023.023 0 0 0-.027.006l-.006.014l-.034.614c0 .012.007.02.017.024l.015-.002l.201-.093l.01-.008l.003-.011l.018-.43l-.003-.012l-.01-.01z"
        ></path>
        <path
          fill="currentColor"
          d="M5.5 17a1.5 1.5 0 1 1 0 3a1.5 1.5 0 0 1 0-3m0-14C14.06 3 21 9.94 21 18.5c0 .179-.003.357-.009.534a1 1 0 0 1-1.999-.068c.005-.155.008-.31.008-.466C19 11.044 12.956 5 5.5 5c-.156 0-.311.003-.466.008a1 1 0 0 1-.068-1.999C5.143 3.003 5.321 3 5.5 3m0 7a8.5 8.5 0 0 1 8.482 9.066a1 1 0 0 1-1.996-.132a6.5 6.5 0 0 0-6.92-6.92a1 1 0 1 1-.132-1.995c.187-.013.376-.019.566-.019"
        ></path>
      </g>
    </symbol>

    <!-- location -->
    <symbol viewBox="0 0 24 24" id="mingcute-location-line">
      <g fill="none" fill-rule="evenodd">
        <path
          d="M24 0v24H0V0zM12.593 23.258l-.011.002l-.071.035l-.02.004l-.014-.004l-.071-.035c-.01-.004-.019-.001-.024.005l-.004.01l-.017.428l.005.02l.01.013l.104.074l.015.004l.012-.004l.104-.074l.012-.016l.004-.017l-.017-.427c-.002-.01-.009-.017-.017-.018m.265-.113l-.013.002l-.185.093l-.01.01l-.003.011l.018.43l.005.012l.008.007l.201.093c.012.004.023 0 .029-.008l.004-.014l-.034-.614c-.003-.012-.01-.02-.02-.022m-.715.002a.023.023 0 0 0-.027.006l-.006.014l-.034.614c0 .012.007.02.017.024l.015-.002l.201-.093l.01-.008l.004-.011l.017-.43l-.003-.012l-.01-.01z"
        ></path>
        <path
          fill="currentColor"
          d="M12 2a9 9 0 0 1 9 9c0 3.074-1.676 5.59-3.442 7.395a20.441 20.441 0 0 1-2.876 2.416l-.426.29l-.2.133l-.377.24l-.336.205l-.416.242a1.874 1.874 0 0 1-1.854 0l-.416-.242l-.52-.32l-.192-.125l-.41-.273a20.638 20.638 0 0 1-3.093-2.566C4.676 16.589 3 14.074 3 11a9 9 0 0 1 9-9m0 2a7 7 0 0 0-7 7c0 2.322 1.272 4.36 2.871 5.996a18.03 18.03 0 0 0 2.222 1.91l.458.326c.148.103.29.199.427.288l.39.25l.343.209l.289.169l.455-.269l.367-.23c.195-.124.405-.263.627-.417l.458-.326a18.03 18.03 0 0 0 2.222-1.91C17.728 15.361 19 13.322 19 11a7 7 0 0 0-7-7m0 3a4 4 0 1 1 0 8a4 4 0 0 1 0-8m0 2a2 2 0 1 0 0 4a2 2 0 0 0 0-4"
        ></path>
      </g>
    </symbol>
  </defs>
</svg>
