<svg xmlns="http://www.w3.org/2000/svg" width="32" height="32" viewBox="0 0 24 24"><g fill="none" fill-rule="evenodd"><path d="m12.593 23.258l-.011.002l-.071.035l-.02.004l-.014-.004l-.071-.035q-.016-.005-.024.005l-.004.01l-.017.428l.005.02l.01.013l.104.074l.015.004l.012-.004l.104-.074l.012-.016l.004-.017l-.017-.427q-.004-.016-.017-.018m.265-.113l-.013.002l-.185.093l-.01.01l-.003.011l.018.43l.005.012l.008.007l.201.093q.019.005.029-.008l.004-.014l-.034-.614q-.005-.018-.02-.022m-.715.002a.02.02 0 0 0-.027.006l-.006.014l-.034.614q.001.018.017.024l.015-.002l.201-.093l.01-.008l.004-.011l.017-.43l-.003-.012l-.01-.01z"/><path fill="currentColor" d="M11.852 5.782a4.5 4.5 0 1 1 1.388 7.31a2.1 2.1 0 0 0-.837-.178H11.04c-.69 0-1.25.56-1.25 1.25v1.578H8.213c-.69 0-1.25.56-1.25 1.25v1.578H4.72v-1.414l5.356-5.355c.544-.544.68-1.296.55-1.931a4.5 4.5 0 0 1 1.226-4.088m7.778-1.414A6.5 6.5 0 0 0 8.666 10.27a.2.2 0 0 1-.006.118l-5.5 5.5a1.5 1.5 0 0 0-.44 1.061v2.611c0 .558.452 1.01 1.01 1.01h3.983c.69 0 1.25-.56 1.25-1.25v-1.578h1.578c.69 0 1.25-.56 1.25-1.25v-1.578h.61q.003-.002.042.013a6.502 6.502 0 0 0 7.187-10.56Zm-4.95 4.95a1.5 1.5 0 1 0 2.122-2.122a1.5 1.5 0 0 0-2.122 2.121Z"/></g></svg>
