<svg xmlns="http://www.w3.org/2000/svg">
  <defs>
    <!-- bulb -->
    <symbol viewBox="0 0 24 24" id="mingcute-bulb-line">
      <g fill="none">
        <path
          d="m12.593 23.258l-.011.002l-.071.035l-.02.004l-.014-.004l-.071-.035q-.016-.005-.024.005l-.004.01l-.017.428l.005.02l.01.013l.104.074l.015.004l.012-.004l.104-.074l.012-.016l.004-.017l-.017-.427q-.004-.016-.017-.018m.265-.113l-.013.002l-.185.093l-.01.01l-.003.011l.018.43l.005.012l.008.007l.201.093q.019.005.029-.008l.004-.014l-.034-.614q-.005-.018-.02-.022m-.715.002a.02.02 0 0 0-.027.006l-.006.014l-.034.614q.001.018.017.024l.015-.002l.201-.093l.01-.008l.004-.011l.017-.43l-.003-.012l-.01-.01z"
        ></path>
        <path
          fill="currentColor"
          d="M13 20a1 1 0 1 1 0 2h-2a1 1 0 1 1 0-2zM12 2c4.41 0 8 3.543 8 7.933c0 3.006-1.522 5.196-2.78 6.494l-.284.283l-.27.252l-.252.22l-.33.27l-.328.244c-.196.138-.34.329-.466.535l-.145.251l-.141.252c-.24.412-.518.766-1.111.766h-3.786c-.593 0-.871-.354-1.11-.766l-.213-.378c-.145-.253-.305-.494-.54-.66l-.232-.171l-.199-.155l-.227-.188l-.252-.22l-.27-.252l-.285-.283C5.522 15.129 4 12.939 4 9.933C4 5.543 7.59 2 12 2m0 2C8.677 4 6 6.665 6 9.933c0 2.624 1.533 4.494 2.593 5.471l.245.218l.22.182l.27.208l.072.052c.315.222.549.531.762.854l.373.582h2.93l.373-.582c.213-.323.447-.632.762-.854l.243-.182l.206-.165l.233-.2C16.342 14.576 18 12.662 18 9.933C18 6.665 15.323 4 12 4m.293 2.293a1 1 0 0 1 1.497 1.32l-.083.094L12.414 9l1.286 1.286c.364.364.392.937.084 1.333l-.084.095l-1.993 1.993a1 1 0 0 1-1.497-1.32l.083-.094L11.586 11L10.3 9.714a1.01 1.01 0 0 1-.084-1.333l.084-.095z"
        ></path>
      </g>
    </symbol>

    <!-- alert -->
    <symbol viewBox="0 0 24 24" id="mingcute-alert-line">
      <g fill="none">
        <path
          d="m12.593 23.258l-.011.002l-.071.035l-.02.004l-.014-.004l-.071-.035q-.016-.005-.024.005l-.004.01l-.017.428l.005.02l.01.013l.104.074l.015.004l.012-.004l.104-.074l.012-.016l.004-.017l-.017-.427q-.004-.016-.017-.018m.265-.113l-.013.002l-.185.093l-.01.01l-.003.011l.018.43l.005.012l.008.007l.201.093q.019.005.029-.008l.004-.014l-.034-.614q-.005-.018-.02-.022m-.715.002a.02.02 0 0 0-.027.006l-.006.014l-.034.614q.001.018.017.024l.015-.002l.201-.093l.01-.008l.004-.011l.017-.43l-.003-.012l-.01-.01z"
        ></path>
        <path
          fill="currentColor"
          d="m13.299 3.148l8.634 14.954a1.5 1.5 0 0 1-1.299 2.25H3.366a1.5 1.5 0 0 1-1.299-2.25l8.634-14.954c.577-1 2.02-1 2.598 0M12 4.898L4.232 18.352h15.536zM12 15a1 1 0 1 1 0 2a1 1 0 0 1 0-2m0-7a1 1 0 0 1 1 1v4a1 1 0 1 1-2 0V9a1 1 0 0 1 1-1"
        ></path>
      </g>
    </symbol>

    <!-- alert octagon -->
    <symbol viewBox="0 0 24 24" id="mingcute-alert-octagon-line">
      <g fill="none">
        <path
          d="m12.593 23.258l-.011.002l-.071.035l-.02.004l-.014-.004l-.071-.035q-.016-.005-.024.005l-.004.01l-.017.428l.005.02l.01.013l.104.074l.015.004l.012-.004l.104-.074l.012-.016l.004-.017l-.017-.427q-.004-.016-.017-.018m.265-.113l-.013.002l-.185.093l-.01.01l-.003.011l.018.43l.005.012l.008.007l.201.093q.019.005.029-.008l.004-.014l-.034-.614q-.005-.018-.02-.022m-.715.002a.02.02 0 0 0-.027.006l-.006.014l-.034.614q.001.018.017.024l.015-.002l.201-.093l.01-.008l.004-.011l.017-.43l-.003-.012l-.01-.01z"
        ></path>
        <path
          fill="currentColor"
          d="M15.314 2a2 2 0 0 1 1.414.586l4.686 4.686A2 2 0 0 1 22 8.686v6.628a2 2 0 0 1-.586 1.414l-4.686 4.686a2 2 0 0 1-1.414.586H8.686a2 2 0 0 1-1.414-.586l-4.686-4.686A2 2 0 0 1 2 15.314V8.686a2 2 0 0 1 .586-1.414l4.686-4.686A2 2 0 0 1 8.686 2zm0 2H8.686L4 8.686v6.628L8.686 20h6.628L20 15.314V8.686zM12 15a1 1 0 1 1 0 2a1 1 0 0 1 0-2m0-9a1 1 0 0 1 1 1v6a1 1 0 1 1-2 0V7a1 1 0 0 1 1-1"
        ></path>
      </g>
    </symbol>
  </defs>
</svg>
