<svg xmlns="http://www.w3.org/2000/svg">
  <defs>

    <!-- star -->
    <symbol viewBox="0 0 24 24" id="mingcute-star-line"><g fill="none" fill-rule="evenodd"><path d="m12.593 23.258l-.011.002l-.071.035l-.02.004l-.014-.004l-.071-.035q-.016-.005-.024.005l-.004.01l-.017.428l.005.02l.01.013l.104.074l.015.004l.012-.004l.104-.074l.012-.016l.004-.017l-.017-.427q-.004-.016-.017-.018m.265-.113l-.013.002l-.185.093l-.01.01l-.003.011l.018.43l.005.012l.008.007l.201.093q.019.005.029-.008l.004-.014l-.034-.614q-.005-.018-.02-.022m-.715.002a.02.02 0 0 0-.027.006l-.006.014l-.034.614q.001.018.017.024l.015-.002l.201-.093l.01-.008l.004-.011l.017-.43l-.003-.012l-.01-.01z"></path><path fill="currentColor" d="M10.92 2.868a1.25 1.25 0 0 1 2.16 0l2.795 4.798l5.428 1.176a1.25 1.25 0 0 1 .667 2.054l-3.7 4.141l.56 5.525a1.25 1.25 0 0 1-1.748 1.27L12 19.592l-5.082 2.24a1.25 1.25 0 0 1-1.748-1.27l.56-5.525l-3.7-4.14a1.25 1.25 0 0 1 .667-2.055l5.428-1.176zM12 4.987L9.687 8.959a1.25 1.25 0 0 1-.816.592l-4.492.973l3.062 3.427c.234.262.347.61.312.959l-.463 4.573l4.206-1.854a1.25 1.25 0 0 1 1.008 0l4.206 1.854l-.463-4.573a1.25 1.25 0 0 1 .311-.959l3.063-3.427l-4.492-.973a1.25 1.25 0 0 1-.816-.592z"></path></g></symbol>

    <!-- fork -->
    <symbol viewBox="0 0 24 24" id="mingcute-git-branch-line"><g fill="none"><path d="m12.593 23.258l-.011.002l-.071.035l-.02.004l-.014-.004l-.071-.035q-.016-.005-.024.005l-.004.01l-.017.428l.005.02l.01.013l.104.074l.015.004l.012-.004l.104-.074l.012-.016l.004-.017l-.017-.427q-.004-.016-.017-.018m.265-.113l-.013.002l-.185.093l-.01.01l-.003.011l.018.43l.005.012l.008.007l.201.093q.019.005.029-.008l.004-.014l-.034-.614q-.005-.018-.02-.022m-.715.002a.02.02 0 0 0-.027.006l-.006.014l-.034.614q.001.018.017.024l.015-.002l.201-.093l.01-.008l.004-.011l.017-.43l-.003-.012l-.01-.01z"></path><path fill="currentColor" d="M18 3a3 3 0 0 1 1 5.83V9a4 4 0 0 1-4 4H9a2 2 0 0 0-2 2v.17a3.001 3.001 0 1 1-2 0V8.83a3.001 3.001 0 1 1 2 0v2.705A4 4 0 0 1 9 11h6a2 2 0 0 0 2-2v-.17A3.001 3.001 0 0 1 18 3M6 17a1 1 0 1 0 0 2a1 1 0 0 0 0-2M6 5a1 1 0 1 0 0 2a1 1 0 0 0 0-2m12 0a1 1 0 1 0 0 2a1 1 0 0 0 0-2"></path></g></symbol>

    <!-- license -->
    <symbol viewBox="0 0 24 24" id="mingcute-balance-line"><g fill="none" fill-rule="evenodd"><path d="m12.593 23.258l-.011.002l-.071.035l-.02.004l-.014-.004l-.071-.035q-.016-.005-.024.005l-.004.01l-.017.428l.005.02l.01.013l.104.074l.015.004l.012-.004l.104-.074l.012-.016l.004-.017l-.017-.427q-.004-.016-.017-.018m.265-.113l-.013.002l-.185.093l-.01.01l-.003.011l.018.43l.005.012l.008.007l.201.093q.019.005.029-.008l.004-.014l-.034-.614q-.005-.018-.02-.022m-.715.002a.02.02 0 0 0-.027.006l-.006.014l-.034.614q.001.018.017.024l.015-.002l.201-.093l.01-.008l.004-.011l.017-.43l-.003-.012l-.01-.01z"></path><path fill="currentColor" d="M12 3a1 1 0 0 1 1 1v1h.764a2 2 0 0 1 .894.211L16.236 6H20a1 1 0 1 1 0 2h-.382l2.276 4.553c.07.139.106.292.106.447a4 4 0 0 1-8 0c0-.155.036-.308.106-.447L16.382 8h-.146a2 2 0 0 1-.894-.211L13.764 7H13v12h3a1 1 0 1 1 0 2H8a1 1 0 1 1 0-2h3V7h-.764l-1.578.789A2 2 0 0 1 7.764 8h-.146l2.276 4.553A1 1 0 0 1 10 13a4 4 0 0 1-8 0a1 1 0 0 1 .106-.447L4.382 8H4a1 1 0 0 1 0-2h3.764l1.578-.789A2 2 0 0 1 10.236 5H11V4a1 1 0 0 1 1-1M6 9.236l-1.989 3.977a2 2 0 0 0 3.978 0zm12 0l-1.989 3.977a2 2 0 0 0 3.955.157l.023-.156z"></path></g></symbol>
  </defs>
</svg>
