<svg xmlns="http://www.w3.org/2000/svg">
  <defs>
    <!-- github -->
    <symbol viewBox="0 0 24 24" id="mingcute-github-2-line">
      <g fill="none">
        <path
          d="M24 0v24H0V0zM12.594 23.258l-.012.002l-.071.035l-.02.004l-.014-.004l-.071-.036c-.01-.003-.019 0-.024.006l-.004.01l-.017.428l.005.02l.01.013l.104.074l.015.004l.012-.004l.104-.074l.012-.016l.004-.017l-.017-.427c-.002-.01-.009-.017-.016-.018m.264-.113l-.014.002l-.184.093l-.01.01l-.003.011l.018.43l.005.012l.008.008l.201.092c.012.004.023 0 .029-.008l.004-.014l-.034-.614c-.003-.012-.01-.02-.02-.022m-.715.002a.023.023 0 0 0-.027.006l-.006.014l-.034.614c0 .012.007.02.017.024l.015-.002l.201-.093l.01-.008l.003-.011l.018-.43l-.003-.012l-.01-.01z"
        ></path>
        <path
          fill="currentColor"
          d="M12 2c5.523 0 10 4.477 10 10s-4.477 10-10 10S2 17.523 2 12S6.477 2 12 2m0 2a8 8 0 1 0 0 16a8 8 0 0 0 0-16M9.243 6.212a5.77 5.77 0 0 1 1.17.553A7.12 7.12 0 0 1 12 6.588c.548 0 1.08.061 1.586.177a5.773 5.773 0 0 1 1.17-.553l.284-.092c.393-.117.83-.193 1.197-.01c.17.085.312.218.414.378c.208.326.283.746.329 1.123a4.18 4.18 0 0 1-.033 1.27c.447.635.72 1.387.72 2.207c0 1.845-1.315 3.262-3.005 3.976c.038.147.065.299.078.455l.01.246l-.029 2.745a1 1 0 1 1-2-.02l.029-2.74a.743.743 0 0 0-.168-.468l-.068-.073c-.604-.57-.296-1.561.493-1.719c1.74-.347 2.66-1.446 2.66-2.402c0-.447-.182-.897-.557-1.306a1.006 1.006 0 0 1-.23-.94l.04-.123c.053-.127.082-.285.09-.456a3.336 3.336 0 0 0-.62.375a1.02 1.02 0 0 1-.913.167A5.028 5.028 0 0 0 12 8.588c-.53 0-1.029.079-1.479.217a1.02 1.02 0 0 1-.913-.166a3.336 3.336 0 0 0-.621-.376c.006.129.024.25.055.356l.036.101c.149.361.075.776-.189 1.063c-.375.409-.556.858-.556 1.305c0 .956.92 2.055 2.66 2.402c.751.15 1.067 1.057.573 1.635l-.08.084a.745.745 0 0 0-.229.44l-.007.116l-.029 2.745a1 1 0 1 1-2-.02l.005-.457a2.665 2.665 0 0 1-1.046-.202a2.595 2.595 0 0 1-.985-.757a1.689 1.689 0 0 1-.13-.188l-.141-.234c-.123-.2-.26-.392-.411-.44a.75.75 0 1 1 .474-1.423c.437.145.715.458.894.69c.16.208.298.433.466.635c.137.164.265.271.419.336c.106.045.256.084.476.083l.008-.784c0-.237.03-.466.088-.685c-1.69-.714-3.005-2.131-3.005-3.976c0-.82.272-1.57.718-2.205a4.156 4.156 0 0 1-.033-1.271c.046-.377.12-.798.329-1.124c.102-.16.244-.292.414-.378c.366-.183.804-.107 1.197.01z"
        ></path>
      </g>
    </symbol>

    <!-- site -->
    <symbol viewBox="0 0 24 24" id="mingcute-earth-2-line">
      <g fill="none" fill-rule="evenodd">
        <path
          d="M24 0v24H0V0zM12.594 23.258l-.012.002l-.071.035l-.02.004l-.014-.004l-.071-.036c-.01-.003-.019 0-.024.006l-.004.01l-.017.428l.005.02l.01.013l.104.074l.015.004l.012-.004l.104-.074l.012-.016l.004-.017l-.017-.427c-.002-.01-.009-.017-.016-.018m.264-.113l-.014.002l-.184.093l-.01.01l-.003.011l.018.43l.005.012l.008.008l.201.092c.012.004.023 0 .029-.008l.004-.014l-.034-.614c-.003-.012-.01-.02-.02-.022m-.715.002a.023.023 0 0 0-.027.006l-.006.014l-.034.614c0 .012.007.02.017.024l.015-.002l.201-.093l.01-.008l.003-.011l.018-.43l-.003-.012l-.01-.01z"
        ></path>
        <path
          fill="currentColor"
          d="M12 2c5.523 0 10 4.477 10 10s-4.477 10-10 10S2 17.523 2 12S6.477 2 12 2m1.482 14.94a18.214 18.214 0 0 1-2.964 0c.093.397.197.765.31 1.102c.251.755.53 1.293.79 1.622c.127.162.23.248.3.29l.051.028l.03.008l.032-.008l.051-.027a1.21 1.21 0 0 0 .3-.29c.26-.33.539-.868.79-1.623c.113-.337.217-.705.31-1.102m-8.675-1.435a8.026 8.026 0 0 0 4.441 4.01a10.52 10.52 0 0 1-.318-.84a15.818 15.818 0 0 1-.52-2.033a17.87 17.87 0 0 1-3.603-1.137m14.387 0c-1.145.5-2.351.883-3.605 1.137a15.63 15.63 0 0 1-.52 2.034c-.096.29-.202.572-.318.838a8.027 8.027 0 0 0 4.443-4.01Zm-5.218-4.634a15.119 15.119 0 0 1-3.952 0a26.02 26.02 0 0 0 .141 4.025a16.195 16.195 0 0 0 3.67 0A25.04 25.04 0 0 0 14 12c0-.384-.008-.76-.024-1.13ZM4.568 9.032a7.978 7.978 0 0 0-.52 3.856a15.893 15.893 0 0 0 4.067 1.637a27.889 27.889 0 0 1-.074-4.053a14.915 14.915 0 0 1-3.473-1.44m14.864 0a14.916 14.916 0 0 1-3.473 1.44a27.879 27.879 0 0 1-.074 4.053a15.892 15.892 0 0 0 4.066-1.637a7.978 7.978 0 0 0-.52-3.855Zm-7.416-5.02l-.011-.002l-.02.003l-.038.015a1.233 1.233 0 0 0-.33.307c-.26.33-.538.868-.79 1.622c-.27.808-.488 1.8-.633 2.919a13.123 13.123 0 0 0 3.612 0c-.145-1.12-.364-2.111-.633-2.919c-.252-.754-.53-1.293-.79-1.622a1.233 1.233 0 0 0-.3-.29l-.067-.032Zm-2.768.474a8.022 8.022 0 0 0-3.71 2.797c.843.484 1.746.876 2.695 1.163c.16-1.164.397-2.223.697-3.122c.097-.291.203-.572.318-.838m5.504 0c.115.266.22.547.318.838c.3.9.537 1.958.697 3.122a12.927 12.927 0 0 0 2.695-1.163a8.021 8.021 0 0 0-3.71-2.797"
        ></path>
      </g>
    </symbol>

    <!-- doc -->
    <symbol viewBox="0 0 24 24" id="mingcute-document-3-line">
      <g fill="none">
        <path
          d="M24 0v24H0V0zM12.593 23.258l-.011.002l-.071.035l-.02.004l-.014-.004l-.071-.035c-.01-.004-.019-.001-.024.005l-.004.01l-.017.428l.005.02l.01.013l.104.074l.015.004l.012-.004l.104-.074l.012-.016l.004-.017l-.017-.427c-.002-.01-.009-.017-.017-.018m.265-.113l-.013.002l-.185.093l-.01.01l-.003.011l.018.43l.005.012l.008.007l.201.093c.012.004.023 0 .029-.008l.004-.014l-.034-.614c-.003-.012-.01-.02-.02-.022m-.715.002a.023.023 0 0 0-.027.006l-.006.014l-.034.614c0 .012.007.02.017.024l.015-.002l.201-.093l.01-.008l.004-.011l.017-.43l-.003-.012l-.01-.01z"
        ></path>
        <path
          fill="currentColor"
          d="M18 2a2 2 0 0 1 2 2v11.586A2 2 0 0 1 19.414 17L15 21.414a2 2 0 0 1-1.414.586H6a2 2 0 0 1-2-2V4a2 2 0 0 1 2-2zm0 2H6v16h6v-4.5a1.5 1.5 0 0 1 1.5-1.5H18zm-.414 12H14v3.586zM10 11a1 1 0 1 1 0 2H9a1 1 0 1 1 0-2zm5-4a1 1 0 1 1 0 2H9a1 1 0 1 1 0-2Z"
        ></path>
      </g>
    </symbol>

    <!-- release -->
    <symbol viewBox="0 0 24 24" id="mingcute-package-2-line">
      <g fill="none" fill-rule="evenodd">
        <path
          d="M24 0v24H0V0zM12.594 23.258l-.012.002l-.071.035l-.02.004l-.014-.004l-.071-.036c-.01-.003-.019 0-.024.006l-.004.01l-.017.428l.005.02l.01.013l.104.074l.015.004l.012-.004l.104-.074l.012-.016l.004-.017l-.017-.427c-.002-.01-.009-.017-.016-.018m.264-.113l-.014.002l-.184.093l-.01.01l-.003.011l.018.43l.005.012l.008.008l.201.092c.012.004.023 0 .029-.008l.004-.014l-.034-.614c-.003-.012-.01-.02-.02-.022m-.715.002a.023.023 0 0 0-.027.006l-.006.014l-.034.614c0 .012.007.02.017.024l.015-.002l.201-.093l.01-.008l.003-.011l.018-.43l-.003-.012l-.01-.01z"
        ></path>
        <path
          fill="currentColor"
          d="M12.25 4.299a.5.5 0 0 0-.5 0L6.206 7.5l1.813 1.047l5.798-3.343zm3.568 2.06L10.02 9.702l1.73.999a.5.5 0 0 0 .5 0L17.794 7.5l-1.976-1.14Zm2.976 2.873l-5.544 3.201a2.25 2.25 0 0 1-.25.126v6.709l5.544-3.201a.5.5 0 0 0 .25-.433zM11 19.268v-6.709a2.5 2.5 0 0 1-.25-.126L5.206 9.232v6.402a.5.5 0 0 0 .25.433zm-.25-16.701a2.5 2.5 0 0 1 2.5 0l6.294 3.634a2.5 2.5 0 0 1 1.25 2.165v7.268a2.5 2.5 0 0 1-1.25 2.165l-6.294 3.634a2.5 2.5 0 0 1-2.5 0l-6.294-3.634a2.5 2.5 0 0 1-1.25-2.165V8.366a2.5 2.5 0 0 1 1.25-2.165z"
        ></path>
      </g>
    </symbol>

    <!-- key -->
    <symbol viewBox="0 0 24 24" id="mingcute-key-2-line">
      <g fill="none" fill-rule="evenodd">
        <path
          d="M24 0v24H0V0zM12.593 23.258l-.011.002l-.071.035l-.02.004l-.014-.004l-.071-.035c-.01-.004-.019-.001-.024.005l-.004.01l-.017.428l.005.02l.01.013l.104.074l.015.004l.012-.004l.104-.074l.012-.016l.004-.017l-.017-.427c-.002-.01-.009-.017-.017-.018m.265-.113l-.013.002l-.185.093l-.01.01l-.003.011l.018.43l.005.012l.008.007l.201.093c.012.004.023 0 .029-.008l.004-.014l-.034-.614c-.003-.012-.01-.02-.02-.022m-.715.002a.023.023 0 0 0-.027.006l-.006.014l-.034.614c0 .012.007.02.017.024l.015-.002l.201-.093l.01-.008l.004-.011l.017-.43l-.003-.012l-.01-.01z"
        ></path>
        <path
          fill="currentColor"
          d="M11.852 5.782a4.5 4.5 0 1 1 1.388 7.31a2.102 2.102 0 0 0-.837-.178H11.04c-.69 0-1.25.56-1.25 1.25v1.578H8.213c-.69 0-1.25.56-1.25 1.25v1.578H4.72v-1.414l5.356-5.355c.544-.544.68-1.296.55-1.931a4.495 4.495 0 0 1 1.226-4.088m7.778-1.414A6.5 6.5 0 0 0 8.666 10.27a.21.21 0 0 1-.006.118l-5.5 5.5a1.5 1.5 0 0 0-.44 1.061v2.611c0 .558.452 1.01 1.01 1.01h3.983c.69 0 1.25-.56 1.25-1.25v-1.578h1.578c.69 0 1.25-.56 1.25-1.25v-1.578h.61c.002 0 .016.002.042.013a6.502 6.502 0 0 0 7.187-10.56Zm-4.95 4.95a1.5 1.5 0 1 0 2.122-2.122a1.5 1.5 0 0 0-2.122 2.121Z"
        ></path>
      </g>
    </symbol>
  </defs>
</svg>
