<svg xmlns="http://www.w3.org/2000/svg">
  <defs>
    <!-- bilibili -->
    <symbol viewBox="0 0 24 24" id="ri-bilibili-line">
      <path
        fill="currentColor"
        d="M7.172 2.757L10.414 6h3.171l3.243-3.242a1 1 0 1 1 1.415 1.415L16.414 6H18.5A3.5 3.5 0 0 1 22 9.5v8a3.5 3.5 0 0 1-3.5 3.5h-13A3.5 3.5 0 0 1 2 17.5v-8A3.5 3.5 0 0 1 5.5 6h2.085L5.757 4.171a1 1 0 0 1 1.415-1.415M18.5 8h-13a1.5 1.5 0 0 0-1.493 1.356L4 9.5v8a1.5 1.5 0 0 0 1.356 1.493L5.5 19h13a1.5 1.5 0 0 0 1.493-1.355L20 17.5v-8A1.5 1.5 0 0 0 18.5 8M8 11a1 1 0 0 1 1 1v2a1 1 0 1 1-2 0v-2a1 1 0 0 1 1-1m8 0a1 1 0 0 1 1 1v2a1 1 0 1 1-2 0v-2a1 1 0 0 1 1-1"
      ></path>
    </symbol>

    <!-- twitter -->
    <symbol viewBox="0 0 24 24" id="mingcute-twitter-line">
      <g fill="none" fill-rule="evenodd">
        <path
          d="M24 0v24H0V0zM12.593 23.258l-.011.002l-.071.035l-.02.004l-.014-.004l-.071-.035c-.01-.004-.019-.001-.024.005l-.004.01l-.017.428l.005.02l.01.013l.104.074l.015.004l.012-.004l.104-.074l.012-.016l.004-.017l-.017-.427c-.002-.01-.009-.017-.017-.018m.265-.113l-.013.002l-.185.093l-.01.01l-.003.011l.018.43l.005.012l.008.007l.201.093c.012.004.023 0 .029-.008l.004-.014l-.034-.614c-.003-.012-.01-.02-.02-.022m-.715.002a.023.023 0 0 0-.027.006l-.006.014l-.034.614c0 .012.007.02.017.024l.015-.002l.201-.093l.01-.008l.004-.011l.017-.43l-.003-.012l-.01-.01z"
        ></path>
        <path
          fill="currentColor"
          d="M17.817 6.989c-.353-.508-1.297-1.222-2.826-.914c-.892.179-1.425.62-1.764 1.202c-.361.62-.536 1.463-.536 2.444a1 1 0 0 1-1 1c-2.366 0-4.618-.703-6.513-2.604a10.52 10.52 0 0 0-.168 2.34c.053 1.086.312 2.175.927 3.108c.605.917 1.6 1.757 3.264 2.285a1 1 0 0 1 .41 1.655a8.52 8.52 0 0 1-1.796 1.405c1.06.11 2.082.118 3.03.032c1.92-.174 3.449-.723 4.405-1.5c2.013-1.632 3.09-4.066 2.89-8.144c-.034-.67.613-1.393.925-1.942c-.471.088-.943.072-1.248-.367M4.594 4.984a1 1 0 0 1 .941.429C7.011 7.572 8.783 8.47 10.75 8.674c.096-.841.323-1.672.75-2.404c.626-1.074 1.644-1.864 3.098-2.156c2.01-.404 3.54.324 4.427 1.215l1.792-.335a1 1 0 0 1 1.053 1.478l-1.72 3.022c.157 4.361-1.055 7.405-3.639 9.502c-1.37 1.112-3.332 1.743-5.485 1.938c-2.17.196-4.623-.041-7.061-.753a1 1 0 0 1 .007-1.922c1.226-.349 2.16-.65 3.003-1.177c-1.199-.636-2.082-1.468-2.707-2.416c-.868-1.318-1.19-2.788-1.254-4.113c-.064-1.325.127-2.553.329-3.438c.115-.505.249-1.011.434-1.495a1 1 0 0 1 .818-.636Z"
        ></path>
      </g>
    </symbol>

    <!-- zhihu -->
    <symbol viewBox="0 0 24 24" id="ri-zhihu-line">
      <path
        fill="currentColor"
        d="m12.345 17.963l-1.688 1.074l-2.132-3.35c-.44 1.402-1.171 2.665-2.138 3.825c-.402.483-.82.918-1.301 1.376c-.155.146-.775.716-.878.82l-1.414-1.415c.139-.139.787-.735.914-.856c.43-.408.796-.79 1.143-1.205C6.117 16.712 6.88 15.02 6.988 13H3v-2h4V7h-.868c-.689 1.266-1.558 2.222-2.618 2.858L2.486 8.143c1.396-.838 2.426-2.603 3.039-5.36l1.952.434c-.14.633-.303 1.228-.489 1.783h4.513v2H9v4h2.5v2H9.186zm3.838-.07L17.3 17h1.702V7h-4v10h.736zM13.001 5h8v14h-3l-2.5 2l-1-2H13z"
      ></path>
    </symbol>

    <!-- steam -->
    <symbol viewBox="0 0 24 24" id="ri-steam-line">
      <path
        fill="currentColor"
        d="M17.001 4a5 5 0 1 1-.892 9.92l-2.651 1.989a4 4 0 1 1-7.923.068L1.709 14.43l.75-1.854l3.826 1.545a3.994 3.994 0 0 1 3.697-1.592l2.04-3.061A5 5 0 0 1 17.002 4m-7.5 10.5c-.464 0-.892.158-1.231.424l1.606.649a1 1 0 0 1-.75 1.854L7.52 16.78a2 2 0 1 0 1.981-2.28m3.364-2.69l-.983 1.476c.284.21.54.458.758.735l1.36-1.02a5.027 5.027 0 0 1-1.135-1.191M17 6a3 3 0 1 0 0 6a3 3 0 0 0 0-6m0 1a2 2 0 1 1 0 4a2 2 0 0 1 0-4"
      ></path>
    </symbol>
  </defs>
</svg>
