<svg xmlns="http://www.w3.org/2000/svg">
  <defs>
    <!-- calendar -->
    <symbol viewBox="0 0 24 24" id="mingcute-calendar-2-line">
      <g fill="none" fill-rule="evenodd">
        <path
          d="m12.594 23.258l-.012.002l-.071.035l-.02.004l-.014-.004l-.071-.036c-.01-.003-.019 0-.024.006l-.004.01l-.017.428l.005.02l.01.013l.104.074l.015.004l.012-.004l.104-.074l.012-.016l.004-.017l-.017-.427c-.002-.01-.009-.017-.016-.018m.264-.113l-.014.002l-.184.093l-.01.01l-.003.011l.018.43l.005.012l.008.008l.201.092c.012.004.023 0 .029-.008l.004-.014l-.034-.614c-.003-.012-.01-.02-.02-.022m-.715.002a.023.023 0 0 0-.027.006l-.006.014l-.034.614c0 .012.007.02.017.024l.015-.002l.201-.093l.01-.008l.003-.011l.018-.43l-.003-.012l-.01-.01z"
        ></path>
        <path
          fill="currentColor"
          d="M16 3a1 1 0 0 1 1 1v1h2a2 2 0 0 1 2 2v12a2 2 0 0 1-2 2H5a2 2 0 0 1-2-2V7a2 2 0 0 1 2-2h2V4a1 1 0 0 1 2 0v1h6V4a1 1 0 0 1 1-1M8 7H5v2h14V7h-3zm-3 4v8h14v-8zm2 2a1 1 0 0 1 1-1h.01a1 1 0 1 1 0 2H8a1 1 0 0 1-1-1m1 2a1 1 0 1 0 0 2h.01a1 1 0 1 0 0-2zm3-2a1 1 0 0 1 1-1h.01a1 1 0 1 1 0 2H12a1 1 0 0 1-1-1m1 2a1 1 0 1 0 0 2h.01a1 1 0 1 0 0-2zm3-2a1 1 0 0 1 1-1h.01a1 1 0 1 1 0 2H16a1 1 0 0 1-1-1m1 2a1 1 0 1 0 0 2h.01a1 1 0 1 0 0-2z"
        ></path>
      </g>
    </symbol>

    <!-- time -->
    <symbol viewBox="0 0 24 24" id="mingcute-time-line">
      <g fill="none">
        <path
          d="M24 0v24H0V0zM12.593 23.258l-.011.002l-.071.035l-.02.004l-.014-.004l-.071-.035c-.01-.004-.019-.001-.024.005l-.004.01l-.017.428l.005.02l.01.013l.104.074l.015.004l.012-.004l.104-.074l.012-.016l.004-.017l-.017-.427c-.002-.01-.009-.017-.017-.018m.265-.113l-.013.002l-.185.093l-.01.01l-.003.011l.018.43l.005.012l.008.007l.201.093c.012.004.023 0 .029-.008l.004-.014l-.034-.614c-.003-.012-.01-.02-.02-.022m-.715.002a.023.023 0 0 0-.027.006l-.006.014l-.034.614c0 .012.007.02.017.024l.015-.002l.201-.093l.01-.008l.004-.011l.017-.43l-.003-.012l-.01-.01z"
        ></path>
        <path
          fill="currentColor"
          d="M12 2c5.523 0 10 4.477 10 10s-4.477 10-10 10S2 17.523 2 12S6.477 2 12 2m0 2a8 8 0 1 0 0 16a8 8 0 0 0 0-16m0 2a1 1 0 0 1 .993.883L13 7v4.586l2.707 2.707a1 1 0 0 1-1.32 1.497l-.094-.083l-3-3a1 1 0 0 1-.284-.576L11 12V7a1 1 0 0 1 1-1"
        ></path>
      </g>
    </symbol>

    <!-- tag -->
    <symbol viewBox="0 0 24 24" id="mingcute-tag-line">
      <g fill="none" fill-rule="evenodd">
        <path
          d="m12.593 23.258l-.011.002l-.071.035l-.02.004l-.014-.004l-.071-.035c-.01-.004-.019-.001-.024.005l-.004.01l-.017.428l.005.02l.01.013l.104.074l.015.004l.012-.004l.104-.074l.012-.016l.004-.017l-.017-.427c-.002-.01-.009-.017-.017-.018m.265-.113l-.013.002l-.185.093l-.01.01l-.003.011l.018.43l.005.012l.008.007l.201.093c.012.004.023 0 .029-.008l.004-.014l-.034-.614c-.003-.012-.01-.02-.02-.022m-.715.002a.023.023 0 0 0-.027.006l-.006.014l-.034.614c0 .012.007.02.017.024l.015-.002l.201-.093l.01-.008l.004-.011l.017-.43l-.003-.012l-.01-.01z"
        ></path>
        <path
          fill="currentColor"
          d="M10.537 2.164a3 3 0 0 1 2.244.727l.15.14l7.822 7.823a3 3 0 0 1 .135 4.098l-.135.144l-5.657 5.657a3 3 0 0 1-4.098.135l-.144-.135L3.03 12.93a3 3 0 0 1-.878-2.188l.011-.205l.472-5.185a3 3 0 0 1 2.537-2.695l.179-.021zm.308 1.989l-.127.003l-5.185.472a1 1 0 0 0-.888.787l-.017.118l-.472 5.185a1 1 0 0 0 .206.703l.083.095l7.823 7.823a1 1 0 0 0 1.32.083l.094-.083l5.657-5.657a1 1 0 0 0 .083-1.32l-.083-.094l-7.823-7.823a1 1 0 0 0-.671-.292M7.317 7.318a3 3 0 1 1 4.243 4.243a3 3 0 0 1-4.243-4.243m2.829 1.414a1 1 0 1 0-1.415 1.414a1 1 0 0 0 1.415-1.414"
        ></path>
      </g>
    </symbol>

    <!-- tag 2 -->
    <symbol viewBox="0 0 24 24" id="mingcute-tag-2-line">
      <g fill="none">
        <path
          d="m12.593 23.258l-.011.002l-.071.035l-.02.004l-.014-.004l-.071-.035c-.01-.004-.019-.001-.024.005l-.004.01l-.017.428l.005.02l.01.013l.104.074l.015.004l.012-.004l.104-.074l.012-.016l.004-.017l-.017-.427c-.002-.01-.009-.017-.017-.018m.265-.113l-.013.002l-.185.093l-.01.01l-.003.011l.018.43l.005.012l.008.007l.201.093c.012.004.023 0 .029-.008l.004-.014l-.034-.614c-.003-.012-.01-.02-.02-.022m-.715.002a.023.023 0 0 0-.027.006l-.006.014l-.034.614c0 .012.007.02.017.024l.015-.002l.201-.093l.01-.008l.004-.011l.017-.43l-.003-.012l-.01-.01z"
        ></path>
        <path
          fill="currentColor"
          d="M10.238 4.827a3 3 0 0 1 2.122.878l6.485 6.486a3 3 0 0 1 0 4.242l-4.243 4.243a3 3 0 0 1-4.242 0l-6.486-6.485a3 3 0 0 1-.878-2.122V7.327a2.5 2.5 0 0 1 2.5-2.5zm0 2H5.496a.5.5 0 0 0-.5.5v4.742a1 1 0 0 0 .292.707l6.486 6.486a1 1 0 0 0 1.414 0l4.243-4.243a1 1 0 0 0 0-1.414L10.945 7.12a1 1 0 0 0-.707-.293M7.531 9.362a1.5 1.5 0 1 1 2.121 2.122a1.5 1.5 0 0 1-2.121-2.122M11.652 2a3 3 0 0 1 2.122.878l7.192 7.193a1 1 0 0 1-1.414 1.414L12.36 4.29a1 1 0 0 0-.708-.29H7a1 1 0 0 1 0-2z"
        ></path>
      </g>
    </symbol>

    <!-- top -->
    <symbol viewBox="0 0 24 24" id="mingcute-up-line">
      <g fill="none" fill-rule="evenodd">
        <path
          d="M24 0v24H0V0zM12.593 23.258l-.011.002l-.071.035l-.02.004l-.014-.004l-.071-.035c-.01-.004-.019-.001-.024.005l-.004.01l-.017.428l.005.02l.01.013l.104.074l.015.004l.012-.004l.104-.074l.012-.016l.004-.017l-.017-.427c-.002-.01-.009-.017-.017-.018m.265-.113l-.013.002l-.185.093l-.01.01l-.003.011l.018.43l.005.012l.008.007l.201.093c.012.004.023 0 .029-.008l.004-.014l-.034-.614c-.003-.012-.01-.02-.02-.022m-.715.002a.023.023 0 0 0-.027.006l-.006.014l-.034.614c0 .012.007.02.017.024l.015-.002l.201-.093l.01-.008l.004-.011l.017-.43l-.003-.012l-.01-.01z"
        ></path>
        <path
          fill="currentColor"
          d="M11.293 8.293a1 1 0 0 1 1.414 0l5.657 5.657a1 1 0 0 1-1.414 1.414L12 10.414l-4.95 4.95a1 1 0 0 1-1.414-1.414z"
        ></path>
      </g>
    </symbol>

    <!-- english -->
    <symbol viewBox="0 0 48 48" id="icon-park-outline-english">
      <g
        fill="none"
        stroke="currentColor"
        stroke-linecap="round"
        stroke-linejoin="round"
        stroke-width="4"
      >
        <rect width="36" height="36" x="6" y="6" rx="3"></rect>
        <path
          d="M13 31V17h8m-8 7h7.5M13 31h7.5m5.5 0V19m0 12v-6.5a4.5 4.5 0 0 1 4.5-4.5v0a4.5 4.5 0 0 1 4.5 4.5V31"
        ></path>
      </g>
    </symbol>
    <symbol viewBox="0 0 24 24" id="mingcute-star-line">
      <g fill='none'><path d='M24 0v24H0V0zM12.593 23.258l-.011.002-.071.035-.02.004-.014-.004-.071-.035c-.01-.004-.019-.001-.024.005l-.004.01-.017.428.005.02.01.013.104.074.015.004.012-.004.104-.074.012-.016.004-.017-.017-.427c-.002-.01-.009-.017-.017-.018m.265-.113-.013.002-.185.093-.01.01-.003.011.018.43.005.012.008.007.201.093c.012.004.023 0 .029-.008l.004-.014-.034-.614c-.003-.012-.01-.02-.02-.022m-.715.002a.023.023 0 0 0-.027.006l-.006.014-.034.614c0 .012.007.02.017.024l.015-.002.201-.093.01-.008.004-.011.017-.43-.003-.012-.01-.01z'/><path fill='#FDAD15FF' d='M10.92 2.868a1.25 1.25 0 0 1 2.16 0l2.795 4.798 5.428 1.176a1.25 1.25 0 0 1 .667 2.054l-3.7 4.141.56 5.525a1.25 1.25 0 0 1-1.748 1.27L12 19.592l-5.082 2.24a1.25 1.25 0 0 1-1.748-1.27l.56-5.525-3.7-4.14a1.25 1.25 0 0 1 .667-2.055l5.428-1.176z'/>
      </g>
    </symbol>
    <symbol viewBox="0 0 24 24" id="mingcute-paper-line">
      <g id="paper_line" fill='none'><path d='M24 0v24H0V0zM12.593 23.258l-.011.002-.071.035-.02.004-.014-.004-.071-.035c-.01-.004-.019-.001-.024.005l-.004.01-.017.428.005.02.01.013.104.074.015.004.012-.004.104-.074.012-.016.004-.017-.017-.427c-.002-.01-.009-.017-.017-.018m.265-.113-.013.002-.185.093-.01.01-.003.011.018.43.005.012.008.007.201.093c.012.004.023 0 .029-.008l.004-.014-.034-.614c-.003-.012-.01-.02-.02-.022m-.715.002a.023.023 0 0 0-.027.006l-.006.014-.034.614c0 .012.007.02.017.024l.015-.002.201-.093.01-.008.004-.011.017-.43-.003-.012-.01-.01z'/><path fill='#FDAD15FF' d='M16 3a3 3 0 0 1 2.995 2.824L19 6v10h.75c.647 0 1.18.492 1.244 1.122l.006.128V19a3 3 0 0 1-2.824 2.995L18 22H8a3 3 0 0 1-2.995-2.824L5 19V9H3.25a1.25 1.25 0 0 1-1.244-1.122L2 7.75V6a3 3 0 0 1 2.824-2.995L5 3zm0 2H7v14a1 1 0 1 0 2 0v-1.75c0-.69.56-1.25 1.25-1.25H17V6a1 1 0 0 0-1-1m3 13h-8v1c0 .35-.06.687-.17 1H18a1 1 0 0 0 1-1zm-7-6a1 1 0 1 1 0 2h-2a1 1 0 1 1 0-2zm2-4a1 1 0 1 1 0 2h-4a1 1 0 0 1 0-2zM5 5a1 1 0 0 0-.993.883L4 6v1h1z'/></g>
    </symbol>
  </defs>
</svg>
