<svg xmlns="http://www.w3.org/2000/svg">
  <defs>
    <!-- calendar -->
    <symbol viewBox="0 0 24 24" id="mingcute-calendar-2-line">
      <g fill="none" fill-rule="evenodd">
        <path
          d="m12.594 23.258l-.012.002l-.071.035l-.02.004l-.014-.004l-.071-.036c-.01-.003-.019 0-.024.006l-.004.01l-.017.428l.005.02l.01.013l.104.074l.015.004l.012-.004l.104-.074l.012-.016l.004-.017l-.017-.427c-.002-.01-.009-.017-.016-.018m.264-.113l-.014.002l-.184.093l-.01.01l-.003.011l.018.43l.005.012l.008.008l.201.092c.012.004.023 0 .029-.008l.004-.014l-.034-.614c-.003-.012-.01-.02-.02-.022m-.715.002a.023.023 0 0 0-.027.006l-.006.014l-.034.614c0 .012.007.02.017.024l.015-.002l.201-.093l.01-.008l.003-.011l.018-.43l-.003-.012l-.01-.01z"
        ></path>
        <path
          fill="currentColor"
          d="M16 3a1 1 0 0 1 1 1v1h2a2 2 0 0 1 2 2v12a2 2 0 0 1-2 2H5a2 2 0 0 1-2-2V7a2 2 0 0 1 2-2h2V4a1 1 0 0 1 2 0v1h6V4a1 1 0 0 1 1-1M8 7H5v2h14V7h-3zm-3 4v8h14v-8zm2 2a1 1 0 0 1 1-1h.01a1 1 0 1 1 0 2H8a1 1 0 0 1-1-1m1 2a1 1 0 1 0 0 2h.01a1 1 0 1 0 0-2zm3-2a1 1 0 0 1 1-1h.01a1 1 0 1 1 0 2H12a1 1 0 0 1-1-1m1 2a1 1 0 1 0 0 2h.01a1 1 0 1 0 0-2zm3-2a1 1 0 0 1 1-1h.01a1 1 0 1 1 0 2H16a1 1 0 0 1-1-1m1 2a1 1 0 1 0 0 2h.01a1 1 0 1 0 0-2z"
        ></path>
      </g>
    </symbol>

    <!-- time -->
    <symbol viewBox="0 0 24 24" id="mingcute-time-line">
      <g fill="none">
        <path
          d="M24 0v24H0V0zM12.593 23.258l-.011.002l-.071.035l-.02.004l-.014-.004l-.071-.035c-.01-.004-.019-.001-.024.005l-.004.01l-.017.428l.005.02l.01.013l.104.074l.015.004l.012-.004l.104-.074l.012-.016l.004-.017l-.017-.427c-.002-.01-.009-.017-.017-.018m.265-.113l-.013.002l-.185.093l-.01.01l-.003.011l.018.43l.005.012l.008.007l.201.093c.012.004.023 0 .029-.008l.004-.014l-.034-.614c-.003-.012-.01-.02-.02-.022m-.715.002a.023.023 0 0 0-.027.006l-.006.014l-.034.614c0 .012.007.02.017.024l.015-.002l.201-.093l.01-.008l.004-.011l.017-.43l-.003-.012l-.01-.01z"
        ></path>
        <path
          fill="currentColor"
          d="M12 2c5.523 0 10 4.477 10 10s-4.477 10-10 10S2 17.523 2 12S6.477 2 12 2m0 2a8 8 0 1 0 0 16a8 8 0 0 0 0-16m0 2a1 1 0 0 1 .993.883L13 7v4.586l2.707 2.707a1 1 0 0 1-1.32 1.497l-.094-.083l-3-3a1 1 0 0 1-.284-.576L11 12V7a1 1 0 0 1 1-1"
        ></path>
      </g>
    </symbol>

    <!-- hashtag -->
    <symbol viewBox="0 0 24 24" id="mingcute-hashtag-line">
      <g fill="none" fill-rule="evenodd">
        <path
          d="M24 0v24H0V0zM12.593 23.258l-.011.002l-.071.035l-.02.004l-.014-.004l-.071-.035q-.016-.005-.024.005l-.004.01l-.017.428l.005.02l.01.013l.104.074l.015.004l.012-.004l.104-.074l.012-.016l.004-.017l-.017-.427q-.004-.016-.017-.018m.265-.113l-.013.002l-.185.093l-.01.01l-.003.011l.018.43l.005.012l.008.007l.201.093q.019.005.029-.008l.004-.014l-.034-.614q-.005-.019-.02-.022m-.715.002a.02.02 0 0 0-.027.006l-.006.014l-.034.614q.001.018.017.024l.015-.002l.201-.093l.01-.008l.004-.011l.017-.43l-.003-.012l-.01-.01z"
        ></path>
        <path
          fill="currentColor"
          d="M10.124 3.008a1 1 0 0 1 .868 1.116L10.508 8h3.984l.516-4.124a1 1 0 1 1 1.984.248L16.508 8H20a1 1 0 1 1 0 2h-3.742l-.5 4H19.5a1 1 0 1 1 0 2h-3.992l-.516 4.124a1 1 0 1 1-1.984-.248L13.492 16H9.508l-.516 4.124a1 1 0 1 1-1.984-.248L7.492 16H4.5a1 1 0 1 1 0-2h3.242l.5-4H5a1 1 0 0 1 0-2h3.492l.516-4.124a1 1 0 0 1 1.116-.868M13.742 14l.5-4h-3.984l-.5 4z"
        ></path>
      </g>
    </symbol>

    <!-- tag-2 -->
    <symbol viewBox="0 0 24 24" id="mingcute-tag-2-line">
      <g fill="none">
        <path
          d="m12.593 23.258l-.011.002l-.071.035l-.02.004l-.014-.004l-.071-.035c-.01-.004-.019-.001-.024.005l-.004.01l-.017.428l.005.02l.01.013l.104.074l.015.004l.012-.004l.104-.074l.012-.016l.004-.017l-.017-.427c-.002-.01-.009-.017-.017-.018m.265-.113l-.013.002l-.185.093l-.01.01l-.003.011l.018.43l.005.012l.008.007l.201.093c.012.004.023 0 .029-.008l.004-.014l-.034-.614c-.003-.012-.01-.02-.02-.022m-.715.002a.023.023 0 0 0-.027.006l-.006.014l-.034.614c0 .012.007.02.017.024l.015-.002l.201-.093l.01-.008l.004-.011l.017-.43l-.003-.012l-.01-.01z"
        ></path>
        <path
          fill="currentColor"
          d="M10.238 4.827a3 3 0 0 1 2.122.878l6.485 6.486a3 3 0 0 1 0 4.242l-4.243 4.243a3 3 0 0 1-4.242 0l-6.486-6.485a3 3 0 0 1-.878-2.122V7.327a2.5 2.5 0 0 1 2.5-2.5zm0 2H5.496a.5.5 0 0 0-.5.5v4.742a1 1 0 0 0 .292.707l6.486 6.486a1 1 0 0 0 1.414 0l4.243-4.243a1 1 0 0 0 0-1.414L10.945 7.12a1 1 0 0 0-.707-.293M7.531 9.362a1.5 1.5 0 1 1 2.121 2.122a1.5 1.5 0 0 1-2.121-2.122M11.652 2a3 3 0 0 1 2.122.878l7.192 7.193a1 1 0 0 1-1.414 1.414L12.36 4.29a1 1 0 0 0-.708-.29H7a1 1 0 0 1 0-2z"
        ></path>
      </g>
    </symbol>

    <!-- top -->
    <symbol viewBox="0 0 24 24" id="mingcute-up-line">
      <g fill="none" fill-rule="evenodd">
        <path
          d="M24 0v24H0V0zM12.593 23.258l-.011.002l-.071.035l-.02.004l-.014-.004l-.071-.035c-.01-.004-.019-.001-.024.005l-.004.01l-.017.428l.005.02l.01.013l.104.074l.015.004l.012-.004l.104-.074l.012-.016l.004-.017l-.017-.427c-.002-.01-.009-.017-.017-.018m.265-.113l-.013.002l-.185.093l-.01.01l-.003.011l.018.43l.005.012l.008.007l.201.093c.012.004.023 0 .029-.008l.004-.014l-.034-.614c-.003-.012-.01-.02-.02-.022m-.715.002a.023.023 0 0 0-.027.006l-.006.014l-.034.614c0 .012.007.02.017.024l.015-.002l.201-.093l.01-.008l.004-.011l.017-.43l-.003-.012l-.01-.01z"
        ></path>
        <path
          fill="currentColor"
          d="M11.293 8.293a1 1 0 0 1 1.414 0l5.657 5.657a1 1 0 0 1-1.414 1.414L12 10.414l-4.95 4.95a1 1 0 0 1-1.414-1.414z"
        ></path>
      </g>
    </symbol>

    <!-- info -->
    <symbol viewBox="0 0 24 24" id="mingcute-information-line">
      <g fill="none">
        <path
          d="m12.593 23.258l-.011.002l-.071.035l-.02.004l-.014-.004l-.071-.035q-.016-.005-.024.005l-.004.01l-.017.428l.005.02l.01.013l.104.074l.015.004l.012-.004l.104-.074l.012-.016l.004-.017l-.017-.427q-.004-.016-.017-.018m.265-.113l-.013.002l-.185.093l-.01.01l-.003.011l.018.43l.005.012l.008.007l.201.093q.019.005.029-.008l.004-.014l-.034-.614q-.005-.018-.02-.022m-.715.002a.02.02 0 0 0-.027.006l-.006.014l-.034.614q.001.018.017.024l.015-.002l.201-.093l.01-.008l.004-.011l.017-.43l-.003-.012l-.01-.01z"
        ></path>
        <path
          fill="currentColor"
          d="M12 2c5.523 0 10 4.477 10 10s-4.477 10-10 10S2 17.523 2 12S6.477 2 12 2m0 2a8 8 0 1 0 0 16a8 8 0 0 0 0-16m-.01 6c.558 0 1.01.452 1.01 1.01v5.124A1 1 0 0 1 12.5 18h-.49A1.01 1.01 0 0 1 11 16.99V12a1 1 0 1 1 0-2zM12 7a1 1 0 1 1 0 2a1 1 0 0 1 0-2"
        ></path>
      </g>
    </symbol>
  </defs>
</svg>
